/* XPM */
static char * frameATR_xpm[] = {
"15 25 5 1",
" 	c #000000",
".	c #FFFFFF",
"+	c #E6E6E6",
"@	c #CDCACD",
"#	c #C5C6C5",
"               ",
".............+ ",
"+++++++++++++@ ",
"+++++++++++++@ ",
"+++++++++++++@ ",
"+++++++++++++# ",
"+++++++++++++# ",
"+++++++++++++@ ",
"+++++++++++++@ ",
"+++++++++++++# ",
"+++++++++++++@ ",
"+++++++++++++# ",
"+++++++++++++@ ",
"+++++++++++++# ",
"+++++++++++++@ ",
"+++++++++++++# ",
"+++++++++++++@ ",
"+++++++++++++@ ",
"+++++++++++++@ ",
"+++++++++++++# ",
"+++++++++++++@ ",
"+++++++++++++@ ",
"+++++++++++++@ ",
"@@@@@@@@@@@++@ ",
"           .+# "};
