/* XPM */
static char * frameAR_xpm[] = {
"5 17 5 1",
" 	c #000000",
".	c #FFFFFF",
"+	c #E6E6E6",
"@	c #C5C6C5",
"#	c #E6E6EE",
" .+@ ",
" .+@ ",
" .+@ ",
" .+@ ",
" .+@ ",
" .+@ ",
" .+@ ",
" .+@ ",
" .+@ ",
" .+@ ",
" .+@ ",
" .+@ ",
" .#@ ",
" .#@ ",
" .#@ ",
" .#@ ",
" .#@ "};
