/* XPM */
static char * frameABL_xpm[] = {
"15 25 8 1",
" 	c #000000",
".	c #FFFFFF",
"+	c #E6E6E6",
"@	c #CDCACD",
"#	c #D5D2D5",
"$	c #C5CACD",
"%	c #E6E6EE",
"&	c #C5C6C5",
" .+@  #########",
" .+@ ##########",
" .+@ ##########",
" .+@ ##########",
" .+@ ##########",
" .+@ ##########",
" .+@ ##########",
" .+@ ##########",
" .+@ ##########",
" .+@ ##########",
" .+@ ##########",
" .+@ ##########",
" .+@ ##########",
" .+@ ##########",
" .+@ ##########",
" .+@ ##########",
" .+@ ##########",
" .+@ ##########",
" .+@ ##########",
" .+@ ##########",
" .+$           ",
" .++...........",
" .++++++%++++++",
" +@@&@@@@@@@@@@",
"               "};
