/* XPM */
static char * frameIL_xpm[] = {
"5 18 5 1",
" 	c #000000",
".	c #FFFFFF",
"+	c #E6E6E6",
"@	c #CDCACD",
"#	c #CDC6CD",
" .+@ ",
" .+@ ",
" .+@ ",
" .+@ ",
" .+# ",
" .+# ",
" .+# ",
" .+# ",
" .+# ",
" .+# ",
" .+# ",
" .+# ",
" .+# ",
" .+# ",
" .+# ",
" .+# ",
" .+# ",
" .+# "};
