/* XPM */
static char * frameAB_xpm[] = {
"11 5 5 1",
" 	c None",
".	c #000000",
"+	c #FFFFFF",
"@	c #E6E6E6",
"#	c #CDCACD",
"...........",
"+++++++++++",
"@@@@@@@@@@@",
"###########",
"..........."};
