/* XPM */
static char * minimizeA_xpm[] = {
"18 40 6 1",
" 	c #E6E6E6",
".	c #CDCACD",
"+	c #000000",
"@	c #FFFFFF",
"#	c #D5D6D5",
"$	c #515151",
" ................ ",
" .+++++++++++++++@",
" .+@@@@@@@@@@@@.+@",
" .+@           .+@",
" .+@           .+@",
" .+@           .+@",
" .+@           .+@",
" .+@           .+@",
" .+@           .+@",
" .+@           .+@",
" .+@   +++++   .+@",
" .+@   +++++   .+@",
" .+@           .+@",
" .+@           .+@",
" .+.............+@",
" .+++++++++++++++@",
"  @@@@@@@@@@@@@@@@",
"                  ",
"..................",
"++++++++++++++++++",
" ................ ",
" .+++++++++++++++@",
" .+.............+@",
" .+.############+@",
" .+.############+@",
" .+.############+@",
" .+.############+@",
" .+.############+@",
" .+.############+@",
" .+.############+@",
" .+.###$$$$$####+@",
" .+.###$$$$$####+@",
" .+.############+@",
" .+.############+@",
" .+.############+@",
" .+++++++++++++++@",
"  @@@@@@@@@@@@@@@@",
"                  ",
"..................",
"++++++++++++++++++"};
