/* XPM */
static char * titleAB_xpm[] = {
"9 20 5 1",
" 	c #CDCACD",
".	c #000000",
"+	c #D5D6D5",
"@	c #FFFFFF",
"#	c #E6E6E6",
"         ",
".........",
"         ",
"+++++++++",
"+++++++++",
"+++++++++",
"+++++++++",
"+++++++++",
"+++++++++",
"+++++++++",
"+++++++++",
"+++++++++",
"+++++++++",
"+++++++++",
"+++++++++",
".........",
"@@@@@@@@@",
"#########",
"         ",
"........."};
