/* XPM */
static char * titleAL_xpm[] = {
"4 20 4 1",
" 	c #E6E6E6",
".	c #CDCACD",
"+	c #000000",
"@	c #FFFFFF",
" ...",
" .++",
" .+.",
" .+.",
" .+.",
" .+.",
" .+.",
" .+.",
" .+.",
" .+.",
" .+.",
" .+.",
" .+.",
" .+.",
" .+.",
" .++",
"  @@",
"    ",
"....",
"++++"};
