/* XPM */
static char * titleAR_xpm[] = {
"3 20 5 1",
" 	c #CDCACD",
".	c #E6E6E6",
"+	c #000000",
"@	c #FFFFFF",
"#	c #D5D2D5",
"  .",
"++@",
"#+@",
"#+@",
"#+@",
"#+@",
"#+@",
"#+@",
"#+@",
"#+@",
"#+@",
"#+@",
"#+@",
"#+@",
"#+@",
"++@",
"@@@",
"...",
"   ",
"+++"};
