/* XPM */
static char * titleIB_xpm[] = {
"14 20 3 1",
" 	c #E6E6E6",
".	c #CDCACD",
"+	c #000000",
"              ",
"              ",
"              ",
"              ",
"              ",
"              ",
"              ",
"              ",
"              ",
"              ",
"              ",
"              ",
"              ",
"              ",
"              ",
"              ",
"              ",
"              ",
"..............",
"++++++++++++++"};
