<?xml version="1.0" encoding="UTF-8" standalone="no"?>
<!-- Created with Inkscape (http://www.inkscape.org/) -->

<svg
   xmlns:dc="http://purl.org/dc/elements/1.1/"
   xmlns:cc="http://creativecommons.org/ns#"
   xmlns:rdf="http://www.w3.org/1999/02/22-rdf-syntax-ns#"
   xmlns:svg="http://www.w3.org/2000/svg"
   xmlns="http://www.w3.org/2000/svg"
   xmlns:sodipodi="http://sodipodi.sourceforge.net/DTD/sodipodi-0.dtd"
   xmlns:inkscape="http://www.inkscape.org/namespaces/inkscape"
   width="14.000012"
   height="14.000001"
   viewBox="0 0 3.7041699 3.704167"
   version="1.1"
   id="svg831"
   inkscape:version="0.92.4 (5da689c313, 2019-01-14)"
   sodipodi:docname="radio-unchecked.svg">
  <defs
     id="defs825" />
  <sodipodi:namedview
     id="base"
     pagecolor="#ffffff"
     bordercolor="#666666"
     borderopacity="1.0"
     inkscape:pageopacity="0.0"
     inkscape:pageshadow="2"
     inkscape:zoom="59.357138"
     inkscape:cx="7.0000063"
     inkscape:cy="7.0000003"
     inkscape:document-units="mm"
     inkscape:current-layer="layer1"
     showgrid="false"
     units="px"
     inkscape:showpageshadow="false"
     fit-margin-top="0"
     fit-margin-left="0"
     fit-margin-right="0"
     fit-margin-bottom="0"
     inkscape:window-width="1920"
     inkscape:window-height="1019"
     inkscape:window-x="0"
     inkscape:window-y="31"
     inkscape:window-maximized="1" />
  <metadata
     id="metadata828">
    <rdf:RDF>
      <cc:Work
         rdf:about="">
        <dc:format>image/svg+xml</dc:format>
        <dc:type
           rdf:resource="http://purl.org/dc/dcmitype/StillImage" />
        <dc:title></dc:title>
      </cc:Work>
    </rdf:RDF>
  </metadata>
  <g
     inkscape:label="Calque 1"
     inkscape:groupmode="layer"
     id="layer1"
     transform="translate(156.82232,-61.558631)">
    <path
       inkscape:connector-curvature="0"
       style="fill:#eeeeee;fill-opacity:1;stroke:none;stroke-width:0.23128062"
       d="m -154.97024,61.558631 a 1.8520832,1.8520832 0 0 0 -1.85208,1.852083 1.8520832,1.8520832 0 0 0 1.85208,1.852084 1.8520832,1.8520832 0 0 0 1.85209,-1.852084 1.8520832,1.8520832 0 0 0 -1.85209,-1.852083 z m 0,0.0925 a 1.7594792,1.7594257 0 0 1 1.75958,1.759582 1.7594792,1.7594257 0 0 1 -1.75958,1.759583 1.7594792,1.7594257 0 0 1 -1.75958,-1.759583 1.7594792,1.7594257 0 0 1 1.75958,-1.759582 z"
       id="circle824" />
  </g>
</svg>
