/* XPM */
static char *dummy[]={
"22 46 78 2",
".q c #2e2e2e",
".u c #343434",
".v c #3c3c3c",
".w c #404040",
".t c #424242",
".H c #434343",
".p c #454545",
".B c #474747",
".U c #505050",
".O c #525252",
".D c #535353",
".0 c #565656",
".E c #575757",
".N c #595959",
".V c #5c5c5c",
".P c #616161",
".5 c #636363",
".o c #656565",
".L c #666666",
".4 c #686868",
".W c #696969",
".1 c #6b6b6b",
".6 c #6c6c6c",
".G c #6d6d6d",
".X c #6e6e6e",
".2 c #6f6f6f",
"#g c #757575",
".7 c #7c7c7c",
"#f c #828282",
".C c #a4a4a4",
"#j c #a5a5a5",
"#a c #a6a6a6",
".I c #a8a8a8",
".Z c #ababab",
".T c #acacac",
"#e c #adadad",
".9 c #aeaeae",
".s c #b0b0b0",
".i c #b2b2b2",
".3 c #b3b3b3",
".A c #b4b4b4",
".n c #b5b5b5",
".M c #b6b6b6",
".h c #b8b8b8",
".g c #c1c1c1",
".F c #c2c2c2",
".m c #c6c6c6",
"#i c #c9c9c9",
"## c #cbcbcb",
"#d c #cdcdcd",
".f c #cecece",
".z c #d1d1d1",
"#k c #d3d3d3",
".8 c #d5d5d5",
"#b c #d6d6d6",
".K c #d7d7d7",
"#. c #d8d8d8",
".Q c #d9d9d9",
".R c #dadada",
".l c #dcdcdc",
".e c #dddddd",
"#c c #dedede",
".Y c #dfdfdf",
".y c #e0e0e0",
".S c #e1e1e1",
".k c #e3e3e3",
".d c #e4e4e4",
".x c #e6e6e6",
"#h c #e7e7e7",
".r c #e8e8e8",
".J c #e9e9e9",
".j c #eaeaea",
".c c #ebebeb",
".b c #ededed",
".a c #efefef",
".# c #f1f1f1",
"#l c #f2f2f2",
"Qt c #ffffff",
"QtQtQtQtQtQtQtQtQtQtQtQtQtQtQtQtQtQtQtQtQtQt",
".#.#.#.#.#.#.#.#.#.#.#.#.#.#.#.#.#.#.#.#.#.#",
".a.a.a.a.a.a.a.a.a.a.a.a.a.a.a.a.a.a.a.a.a.a",
".b.b.b.b.b.b.b.b.b.b.b.b.b.b.b.b.b.b.b.b.b.b",
".c.c.c.c.c.d.e.f.g.h.i.i.h.g.f.e.d.c.c.c.c.c",
".j.j.j.j.k.l.m.n.o.p.q.q.p.o.n.m.l.k.j.j.j.j",
".r.r.r.d.e.m.s.t.u.v.w.w.v.u.t.s.m.e.d.r.r.r",
".x.x.x.y.z.A.B.w.C.D.E.E.D.C.w.B.A.z.y.x.x.x",
".d.d.d.e.F.G.H.I.J.K.L.L.K.J.I.H.G.F.e.d.d.d",
".k.k.k.l.M.N.O.P.QQt.R.RQt.Q.P.O.N.M.l.k.k.k",
".S.S.S.l.T.U.V.W.X.RQtQt.R.X.W.V.U.T.l.S.S.S",
".Y.Y.Y.l.Z.0.P.1.2.RQtQt.R.2.1.P.0.Z.l.Y.Y.Y",
".e.e.e.e.3.4.5.6.RQt.R.RQt.R.6.5.4.3.e.e.e.e",
".l.l.l.Y.g.7.5.A.c.R.G.G.R.c.A.5.7.g.Y.l.l.l",
".R.R.R.y.8.9.1.W.n.6.6.6.6.n.W.1.9.8.y.R.R.R",
"#.#.#..l.k###a.2.W.1.1.1.1.W.2#a##.k.l#.#.#.",
"#b#b#b#b#c.x#d#e#f#g.6.6#g#f#e#d.x#c#b#b#b#b",
".8.8.8.8.8.e#h#c#i.A#j#j.A#i#c#h.e.8.8.8.8.8",
"#k#k#k#k#k#k.K.k.j.a#l#l.a.j.k.K#k#k#k#k#k#k",
".z.z.z.z.z.z.z.z.z.z.z.z.z.z.z.z.z.z.z.z.z.z",
".z.z.z.z.z.z.z.z.z.z.z.z.z.z.z.z.z.z.z.z.z.z",
".z.z.z.z.z.z.z.z.z.z.z.z.z.z.z.z.z.z.z.z.z.z",
".z.z.z.z.z.z.z.z.z.z.z.z.z.z.z.z.z.z.z.z.z.z",
"QtQtQtQtQtQtQtQtQtQtQtQtQtQtQtQtQtQtQtQtQtQt",
".#.#.#.#.#.#.#.#.#.#.#.#.#.#.#.#.#.#.#.#.#.#",
".a.a.a.a.a.a.a.a.a.a.a.a.a.a.a.a.a.a.a.a.a.a",
".b.b.b.b.b.b.b.b.b.b.b.b.b.b.b.b.b.b.b.b.b.b",
".c.c.c.c.c.d.e.f.g.h.i.i.h.g.f.e.d.c.c.c.c.c",
".j.j.j.j.k.l.m.n.o.p.q.q.p.o.n.m.l.k.j.j.j.j",
".r.r.r.d.e.m.s.t.u.v.w.w.v.u.t.s.m.e.d.r.r.r",
".x.x.x.y.z.A.B.w.C.D.E.E.D.C.w.B.A.z.y.x.x.x",
".d.d.d.e.F.G.H.I.J.K.L.L.K.J.I.H.G.F.e.d.d.d",
".k.k.k.l.M.N.O.P.QQt.R.RQt.Q.P.O.N.M.l.k.k.k",
".S.S.S.l.T.U.V.W.X.RQtQt.R.X.W.V.U.T.l.S.S.S",
".Y.Y.Y.l.Z.0.P.1.2.RQtQt.R.2.1.P.0.Z.l.Y.Y.Y",
".e.e.e.e.3.4.5.6.RQt.R.RQt.R.6.5.4.3.e.e.e.e",
".l.l.l.Y.g.7.5.A.c.R.G.G.R.c.A.5.7.g.Y.l.l.l",
".R.R.R.y.8.9.1.W.n.6.6.6.6.n.W.1.9.8.y.R.R.R",
"#.#.#..l.k###a.2.W.1.1.1.1.W.2#a##.k.l#.#.#.",
"#b#b#b#b#c.x#d#e#f#g.6.6#g#f#e#d.x#c#b#b#b#b",
".8.8.8.8.8.e#h#c#i.A#j#j.A#i#c#h.e.8.8.8.8.8",
"#k#k#k#k#k#k.K.k.j.a#l#l.a.j.k.K#k#k#k#k#k#k",
".z.z.z.z.z.z.z.z.z.z.z.z.z.z.z.z.z.z.z.z.z.z",
".z.z.z.z.z.z.z.z.z.z.z.z.z.z.z.z.z.z.z.z.z.z",
".z.z.z.z.z.z.z.z.z.z.z.z.z.z.z.z.z.z.z.z.z.z",
".z.z.z.z.z.z.z.z.z.z.z.z.z.z.z.z.z.z.z.z.z.z"};
