/* XPM */
static char *dummy[]={
"22 46 108 2",
".P c #000000",
".3 c #1d1d1d",
".J c #1f1f1f",
"#h c #2e2e2e",
"#j c #343434",
".0 c #3b3b3b",
".X c #3c3c3c",
".O c #3d3d3d",
".K c #3e3e3e",
"#k c #404040",
"#i c #424242",
"#r c #434343",
"#g c #454545",
"#m c #474747",
"#x c #505050",
"#v c #525252",
"#n c #535353",
"#B c #565656",
"#o c #575757",
"#u c #595959",
"#y c #5c5c5c",
"#w c #616161",
"#F c #636363",
"#f c #656565",
"#t c #666666",
"#E c #686868",
"#z c #696969",
"#C c #6b6b6b",
"#G c #6c6c6c",
"#q c #6d6d6d",
"#A c #6e6e6e",
"#D c #6f6f6f",
".5 c #747474",
"#M c #757575",
".2 c #767676",
".I c #7c7c7c",
".D c #7d7d7d",
"#L c #828282",
"#a c #a4a4a4",
".7 c #a5a5a5",
"#J c #a6a6a6",
"#s c #a8a8a8",
".U c #aaaaaa",
"#. c #ababab",
".R c #acacac",
"#K c #adadad",
"#H c #aeaeae",
".w c #b0b0b0",
".m c #b1b1b1",
".B c #b2b2b2",
".M c #b3b3b3",
".q c #b4b4b4",
"#e c #b5b5b5",
".l c #b6b6b6",
"#c c #b8b8b8",
".k c #bcbcbc",
".G c #bdbdbd",
".v c #c0c0c0",
".p c #c1c1c1",
"#p c #c2c2c2",
".9 c #c3c3c3",
"#d c #c6c6c6",
".j c #c7c7c7",
"#O c #c9c9c9",
".A c #cacaca",
"#I c #cbcbcb",
".4 c #cccccc",
".g c #cdcdcd",
"#b c #cecece",
".f c #d0d0d0",
"## c #d1d1d1",
".Q c #d3d3d3",
".T c #d4d4d4",
".o c #d5d5d5",
".e c #d6d6d6",
".u c #d7d7d7",
".F c #d8d8d8",
".1 c #d9d9d9",
".Z c #dadada",
".6 c #dbdbdb",
".z c #dcdcdc",
".Y c #dddddd",
".8 c #dedede",
".d c #dfdfdf",
"#l c #e0e0e0",
".i c #e1e1e1",
".t c #e2e2e2",
".L c #e3e3e3",
".E c #e4e4e4",
".c c #e6e6e6",
"#N c #e7e7e7",
".s c #e8e8e8",
".V c #e9e9e9",
".n c #eaeaea",
".h c #ebebeb",
".x c #ececec",
".b c #ededed",
".a c #efefef",
".W c #f0f0f0",
".# c #f1f1f1",
"#P c #f2f2f2",
".S c #f3f3f3",
".N c #f5f5f5",
".r c #f7f7f7",
".H c #f8f8f8",
".C c #fafafa",
".y c #fcfcfc",
"Qt c #ffffff",
"QtQtQtQtQtQtQtQtQtQtQtQtQtQtQtQtQtQtQtQtQtQt",
".#.#.#.#.#.#.#.#.#.#.#.#.#.#.#.#.#.#.#.#.#.#",
".a.a.a.a.a.a.a.a.a.a.a.a.a.a.a.a.a.a.a.a.a.a",
".b.b.b.b.b.b.c.d.e.f.g.g.f.e.d.c.b.b.b.b.b.b",
".h.h.h.h.h.i.e.j.k.l.m.m.l.k.j.e.i.h.h.h.h.h",
".n.n.n.n.i.o.p.q.o.n.r.r.n.o.q.p.o.i.n.n.n.n",
".s.s.s.t.u.v.w.x.y.y.y.y.y.y.x.w.v.u.t.s.s.s",
".c.c.c.z.A.B.h.C.D.C.C.C.C.D.C.h.B.A.z.c.c.c",
".E.E.E.F.G.f.H.I.J.K.H.H.K.J.I.H.f.G.F.E.E.E",
".L.L.L.o.M.i.N.N.O.P.O.O.P.O.N.N.i.M.o.L.L.L",
".i.i.i.Q.R.b.S.S.S.O.P.P.O.S.S.S.b.R.Q.i.i.i",
".d.d.d.T.U.V.W.W.W.X.P.P.X.W.W.W.V.U.T.d.d.d",
".Y.Y.Y.e.w.Z.b.b.0.P.0.0.P.0.b.b.Z.w.e.Y.Y.Y",
".z.z.z.1.k.j.h.2.3.0.h.h.0.3.2.h.j.k.1.z.z.z",
".Z.Z.Z.z.4.R.Z.s.5.s.s.s.s.5.s.Z.R.4.z.Z.Z.Z",
".F.F.F.Z.6.p.7.F.c.c.c.c.c.c.F.7.p.6.Z.F.F.F",
".e.e.e.e.Z.8.9#..p##.d.d##.p#..9.8.Z.e.e.e.e",
".o.o.o.o.o.1.L.e.p.m#a#a.m.p.e.L.1.o.o.o.o.o",
".Q.Q.Q.Q.Q.Q.o.8.n.V.V.V.V.n.8.o.Q.Q.Q.Q.Q.Q",
"############################################",
"############################################",
"############################################",
"############################################",
"QtQtQtQtQtQtQtQtQtQtQtQtQtQtQtQtQtQtQtQtQtQt",
".#.#.#.#.#.#.#.#.#.#.#.#.#.#.#.#.#.#.#.#.#.#",
".a.a.a.a.a.a.a.a.a.a.a.a.a.a.a.a.a.a.a.a.a.a",
".b.b.b.b.b.b.b.b.b.b.b.b.b.b.b.b.b.b.b.b.b.b",
".h.h.h.h.h.E.Y#b.p#c.B.B#c.p#b.Y.E.h.h.h.h.h",
".n.n.n.n.L.z#d#e#f#g#h#h#g#f#e#d.z.L.n.n.n.n",
".s.s.s.E.Y#d.w#i#j.X#k#k.X#j#i.w#d.Y.E.s.s.s",
".c.c.c#l##.q#m#k#a#n#o#o#n#a#k#m.q###l.c.c.c",
".E.E.E.Y#p#q#r#s.V.u#t#t.u.V#s#r#q#p.Y.E.E.E",
".L.L.L.z.l#u#v#w.1Qt.Z.ZQt.1#w#v#u.l.z.L.L.L",
".i.i.i.z.R#x#y#z#A.ZQtQt.Z#A#z#y#x.R.z.i.i.i",
".d.d.d.z#.#B#w#C#D.ZQtQt.Z#D#C#w#B#..z.d.d.d",
".Y.Y.Y.Y.M#E#F#G.ZQt.Z.ZQt.Z#G#F#E.M.Y.Y.Y.Y",
".z.z.z.d.p.I#F.q.h.Z#q#q.Z.h.q#F.I.p.d.z.z.z",
".Z.Z.Z#l.o#H#C#z#e#G#G#G#G#e#z#C#H.o#l.Z.Z.Z",
".F.F.F.z.L#I#J#D#z#C#C#C#C#z#D#J#I.L.z.F.F.F",
".e.e.e.e.8.c.g#K#L#M#G#G#M#L#K.g.c.8.e.e.e.e",
".o.o.o.o.o.Y#N.8#O.q.7.7.q#O.8#N.Y.o.o.o.o.o",
".Q.Q.Q.Q.Q.Q.u.L.n.a#P#P.a.n.L.u.Q.Q.Q.Q.Q.Q",
"############################################",
"############################################",
"############################################",
"############################################"};
