/* XPM */
static char * top_left_inactive_xpm[] = {
"10 23 22 1",
" 	c None",
".	c #888888",
"+	c #FFFFFF",
"@	c #F1F1F1",
"#	c #EFEFEF",
"$	c #EDEDED",
"%	c #EBEBEB",
"&	c #EAEAEA",
"*	c #E8E8E8",
"=	c #E6E6E6",
"-	c #E4E4E4",
";	c #E3E3E3",
">	c #E1E1E1",
",	c #DFDFDF",
"'	c #DDDDDD",
")	c #DCDCDC",
"!	c #DADADA",
"~	c #D8D8D8",
"{	c #D6D6D6",
"]	c #D5D5D5",
"^	c #D3D3D3",
"/	c #D1D1D1",
"..........",
".+++++++++",
".@@@@@@@@@",
".#########",
".$$$$$$$$$",
".%%%%%%%%%",
".&&&&&&&&&",
".*********",
".=========",
".---------",
".;;;;;;;;;",
".>>>>>>>>>",
".,,,,,,,,,",
".'''''''''",
".)))))))))",
".!!!!!!!!!",
".~~~~~~~~~",
".{{{{{{{{{",
".]]]]]]]]]",
".^^^^^^^^^",
"./////////",
"./////////",
"./////////"};
