/* XPM */
static char *dummy[]={
"10 10 2 1",
"# c #888888",
". c #cfcfcf",
".........#",
".........#",
".........#",
".........#",
".........#",
".........#",
".........#",
".........#",
".........#",
"##########"};
