/* XPM */
static char *dummy[]={
"22 46 100 2",
".D c #000000",
".9 c #2e2e2e",
"## c #343434",
"#a c #3c3c3c",
"#b c #404040",
"#. c #424242",
"#i c #434343",
".8 c #454545",
"#d c #474747",
"#e c #4b4b4b",
"#p c #505050",
"#m c #525252",
"#f c #535353",
"#r c #565656",
"#l c #595959",
"#q c #5c5c5c",
"#j c #5d5d5d",
"#n c #616161",
"#t c #636363",
"#k c #646464",
".7 c #656565",
"#s c #686868",
"#o c #696969",
"#x c #6b6b6b",
"#u c #6c6c6c",
"#h c #6d6d6d",
"#v c #6e6e6e",
"#B c #6f6f6f",
"#E c #757575",
"#w c #7c7c7c",
"#D c #828282",
".2 c #a4a4a4",
".X c #a5a5a5",
"#A c #a6a6a6",
".P c #aaaaaa",
".0 c #ababab",
".M c #acacac",
"#C c #adadad",
"#y c #aeaeae",
".w c #b0b0b0",
".m c #b1b1b1",
".B c #b2b2b2",
".J c #b3b3b3",
".q c #b4b4b4",
".6 c #b5b5b5",
".l c #b6b6b6",
".4 c #b8b8b8",
".k c #bcbcbc",
".G c #bdbdbd",
".v c #c0c0c0",
".p c #c1c1c1",
"#g c #c2c2c2",
".Z c #c3c3c3",
".5 c #c6c6c6",
".j c #c7c7c7",
"#G c #c9c9c9",
".A c #cacaca",
"#z c #cbcbcb",
".V c #cccccc",
".g c #cdcdcd",
".3 c #cecece",
".f c #d0d0d0",
".1 c #d1d1d1",
".L c #d3d3d3",
".O c #d4d4d4",
".o c #d5d5d5",
".e c #d6d6d6",
".u c #d7d7d7",
".F c #d8d8d8",
".U c #d9d9d9",
".T c #dadada",
".W c #dbdbdb",
".z c #dcdcdc",
".S c #dddddd",
".Y c #dedede",
".d c #dfdfdf",
"#c c #e0e0e0",
".i c #e1e1e1",
".t c #e2e2e2",
".I c #e3e3e3",
".E c #e4e4e4",
".c c #e6e6e6",
"#F c #e7e7e7",
".s c #e8e8e8",
".Q c #e9e9e9",
".n c #eaeaea",
".h c #ebebeb",
".x c #ececec",
".b c #ededed",
".a c #efefef",
".R c #f0f0f0",
".# c #f1f1f1",
"#H c #f2f2f2",
".N c #f3f3f3",
".K c #f5f5f5",
".r c #f7f7f7",
".H c #f8f8f8",
".C c #fafafa",
".y c #fcfcfc",
"Qt c #ffffff",
"QtQtQtQtQtQtQtQtQtQtQtQtQtQtQtQtQtQtQtQtQtQt",
".#.#.#.#.#.#.#.#.#.#.#.#.#.#.#.#.#.#.#.#.#.#",
".a.a.a.a.a.a.a.a.a.a.a.a.a.a.a.a.a.a.a.a.a.a",
".b.b.b.b.b.b.c.d.e.f.g.g.f.e.d.c.b.b.b.b.b.b",
".h.h.h.h.h.i.e.j.k.l.m.m.l.k.j.e.i.h.h.h.h.h",
".n.n.n.n.i.o.p.q.o.n.r.r.n.o.q.p.o.i.n.n.n.n",
".s.s.s.t.u.v.w.x.y.y.y.y.y.y.x.w.v.u.t.s.s.s",
".c.c.c.z.A.B.h.C.C.C.D.D.C.C.C.h.B.A.z.c.c.c",
".E.E.E.F.G.f.H.H.H.H.D.D.H.H.H.H.f.G.F.E.E.E",
".I.I.I.o.J.i.K.K.K.K.D.D.K.K.K.K.i.J.o.I.I.I",
".i.i.i.L.M.b.N.D.D.D.D.D.D.D.D.N.b.M.L.i.i.i",
".d.d.d.O.P.Q.R.D.D.D.D.D.D.D.D.R.Q.P.O.d.d.d",
".S.S.S.e.w.T.b.b.b.b.D.D.b.b.b.b.T.w.e.S.S.S",
".z.z.z.U.k.j.h.h.h.h.D.D.h.h.h.h.j.k.U.z.z.z",
".T.T.T.z.V.M.T.s.s.s.D.D.s.s.s.T.M.V.z.T.T.T",
".F.F.F.T.W.p.X.F.c.c.c.c.c.c.F.X.p.W.T.F.F.F",
".e.e.e.e.T.Y.Z.0.p.1.d.d.1.p.0.Z.Y.T.e.e.e.e",
".o.o.o.o.o.U.I.e.p.m.2.2.m.p.e.I.U.o.o.o.o.o",
".L.L.L.L.L.L.o.Y.n.Q.Q.Q.Q.n.Y.o.L.L.L.L.L.L",
".1.1.1.1.1.1.1.1.1.1.1.1.1.1.1.1.1.1.1.1.1.1",
".1.1.1.1.1.1.1.1.1.1.1.1.1.1.1.1.1.1.1.1.1.1",
".1.1.1.1.1.1.1.1.1.1.1.1.1.1.1.1.1.1.1.1.1.1",
".1.1.1.1.1.1.1.1.1.1.1.1.1.1.1.1.1.1.1.1.1.1",
"QtQtQtQtQtQtQtQtQtQtQtQtQtQtQtQtQtQtQtQtQtQt",
".#.#.#.#.#.#.#.#.#.#.#.#.#.#.#.#.#.#.#.#.#.#",
".a.a.a.a.a.a.a.a.a.a.a.a.a.a.a.a.a.a.a.a.a.a",
".b.b.b.b.b.b.b.b.b.b.b.b.b.b.b.b.b.b.b.b.b.b",
".h.h.h.h.h.E.S.3.p.4.B.B.4.p.3.S.E.h.h.h.h.h",
".n.n.n.n.I.z.5.6.7.8.9.9.8.7.6.5.z.I.n.n.n.n",
".s.s.s.E.S.5.w#.###a#b#b#a###..w.5.S.E.s.s.s",
".c.c.c#c.1.q#d#b#e#fQtQt#f#e#b#d.q.1#c.c.c.c",
".E.E.E.S#g#h#i#f#j#kQtQt#k#j#f#i#h#g.S.E.E.E",
".I.I.I.z.l#l#m#n#o#hQtQt#h#o#n#m#l.l.z.I.I.I",
".i.i.i.z.M#p#qQtQtQtQtQtQtQtQt#q#p.M.z.i.i.i",
".d.d.d.z.0#r#nQtQtQtQtQtQtQtQt#n#r.0.z.d.d.d",
".S.S.S.S.J#s#t#u#v#vQtQt#v#v#u#t#s.J.S.S.S.S",
".z.z.z.d.p#w#t#x#h#hQtQt#h#h#x#t#w.p.d.z.z.z",
".T.T.T#c.o#y#x#o#u#uQtQt#u#u#o#x#y.o#c.T.T.T",
".F.F.F.z.I#z#A#B#o#x#x#x#x#o#B#A#z.I.z.F.F.F",
".e.e.e.e.Y.c.g#C#D#E#u#u#E#D#C.g.c.Y.e.e.e.e",
".o.o.o.o.o.S#F.Y#G.q.X.X.q#G.Y#F.S.o.o.o.o.o",
".L.L.L.L.L.L.u.I.n.a#H#H.a.n.I.u.L.L.L.L.L.L",
".1.1.1.1.1.1.1.1.1.1.1.1.1.1.1.1.1.1.1.1.1.1",
".1.1.1.1.1.1.1.1.1.1.1.1.1.1.1.1.1.1.1.1.1.1",
".1.1.1.1.1.1.1.1.1.1.1.1.1.1.1.1.1.1.1.1.1.1",
".1.1.1.1.1.1.1.1.1.1.1.1.1.1.1.1.1.1.1.1.1.1"};
