/* XPM */
static char *dummy[]={
"18 18 2 1",
". c #878787",
"# c #a6a6a6",
".#.#.#.#.#.#.#.#.#",
"#.#.#.#.#.#.#.#.#.",
".#.#.#.#.#.#.#.#.#",
"#.#.#.#.#.#.#.#.#.",
".#.#.#.#.#.#.#.#.#",
"#.#.#.#.#.#.#.#.#.",
".#.#.#.#.#.#.#.#.#",
"#.#.#.#.#.#.#.#.#.",
".#.#.#.#.#.#.#.#.#",
"#.#.#.#.#.#.#.#.#.",
".#.#.#.#.#.#.#.#.#",
"#.#.#.#.#.#.#.#.#.",
".#.#.#.#.#.#.#.#.#",
"#.#.#.#.#.#.#.#.#.",
".#.#.#.#.#.#.#.#.#",
"#.#.#.#.#.#.#.#.#.",
".#.#.#.#.#.#.#.#.#",
"#.#.#.#.#.#.#.#.#."};
