/* XPM */
static char *dummy[]={
"23 46 20 1",
"r c #d1d1d1",
"q c #d3d3d3",
"p c #d5d5d5",
"o c #d6d6d6",
"n c #d8d8d8",
"m c #dadada",
"l c #dcdcdc",
"k c #dddddd",
"j c #dfdfdf",
"i c #e1e1e1",
"h c #e3e3e3",
"g c #e4e4e4",
"f c #e6e6e6",
"e c #e8e8e8",
"d c #eaeaea",
"c c #ebebeb",
"b c #ededed",
"a c #efefef",
"# c #f1f1f1",
". c #ffffff",
".......................",
"#######################",
"aaaaaaaaaaaaaaaaaaaaaaa",
"bbbbbbbbbbbbbbbbbbbbbbb",
"ccccccccccccccccccccccc",
"ddddddddddddddddddddddd",
"eeeeeeeeeeeeeeeeeeeeeee",
"fffffffffffffffffffffff",
"ggggggggggggggggggggggg",
"hhhhhhhhhhhhhhhhhhhhhhh",
"iiiiiiiiiiiiiiiiiiiiiii",
"jjjjjjjjjjjjjjjjjjjjjjj",
"kkkkkkkkkkkkkkkkkkkkkkk",
"lllllllllllllllllllllll",
"mmmmmmmmmmmmmmmmmmmmmmm",
"nnnnnnnnnnnnnnnnnnnnnnn",
"ooooooooooooooooooooooo",
"ppppppppppppppppppppppp",
"qqqqqqqqqqqqqqqqqqqqqqq",
"rrrrrrrrrrrrrrrrrrrrrrr",
"rrrrrrrrrrrrrrrrrrrrrrr",
"rrrrrrrrrrrrrrrrrrrrrrr",
"rrrrrrrrrrrrrrrrrrrrrrr",
".......................",
"#######################",
"aaaaaaaaaaaaaaaaaaaaaaa",
"bbbbbbbbbbbbbbbbbbbbbbb",
"ccccccccccccccccccccccc",
"ddddddddddddddddddddddd",
"eeeeeeeeeeeeeeeeeeeeeee",
"fffffffffffffffffffffff",
"ggggggggggggggggggggggg",
"hhhhhhhhhhhhhhhhhhhhhhh",
"iiiiiiiiiiiiiiiiiiiiiii",
"jjjjjjjjjjjjjjjjjjjjjjj",
"kkkkkkkkkkkkkkkkkkkkkkk",
"lllllllllllllllllllllll",
"mmmmmmmmmmmmmmmmmmmmmmm",
"nnnnnnnnnnnnnnnnnnnnnnn",
"ooooooooooooooooooooooo",
"ppppppppppppppppppppppp",
"qqqqqqqqqqqqqqqqqqqqqqq",
"rrrrrrrrrrrrrrrrrrrrrrr",
"rrrrrrrrrrrrrrrrrrrrrrr",
"rrrrrrrrrrrrrrrrrrrrrrr",
"rrrrrrrrrrrrrrrrrrrrrrr"};
