/* XPM */
static char *dummy[]={
"22 46 78 2",
".u c #2e2e2e",
".x c #343434",
".y c #3c3c3c",
".z c #404040",
".w c #424242",
".K c #434343",
".t c #454545",
".E c #474747",
".F c #4b4b4b",
".W c #505050",
".Q c #525252",
".G c #535353",
".0 c #565656",
".H c #575757",
".P c #595959",
".X c #5c5c5c",
".L c #5d5d5d",
".R c #616161",
".3 c #636363",
".M c #646464",
".s c #656565",
".N c #666666",
".2 c #686868",
".S c #696969",
".7 c #6b6b6b",
".4 c #6c6c6c",
".J c #6d6d6d",
".5 c #6e6e6e",
".T c #6f6f6f",
"#f c #757575",
".6 c #7c7c7c",
"#e c #828282",
"#i c #a5a5a5",
"## c #a6a6a6",
".Z c #ababab",
".V c #acacac",
"#d c #adadad",
".9 c #aeaeae",
".v c #b0b0b0",
".m c #b2b2b2",
".1 c #b3b3b3",
".D c #b4b4b4",
".r c #b5b5b5",
".O c #b6b6b6",
".l c #b8b8b8",
".k c #c1c1c1",
".I c #c2c2c2",
".q c #c6c6c6",
"#h c #c9c9c9",
"#. c #cbcbcb",
"#c c #cdcdcd",
".j c #cecece",
".C c #d1d1d1",
"#j c #d3d3d3",
".g c #d5d5d5",
"#a c #d6d6d6",
"#k c #d7d7d7",
".f c #d8d8d8",
".8 c #dadada",
".p c #dcdcdc",
".e c #dddddd",
"#b c #dedede",
".Y c #dfdfdf",
".B c #e0e0e0",
".U c #e1e1e1",
".d c #e2e2e2",
".o c #e3e3e3",
".i c #e4e4e4",
".A c #e6e6e6",
"#g c #e7e7e7",
".c c #e8e8e8",
".n c #eaeaea",
".h c #ebebeb",
".b c #ededed",
".a c #efefef",
".# c #f1f1f1",
"#l c #f2f2f2",
"Qt c #ffffff",
"QtQtQtQtQtQtQtQtQtQtQtQtQtQtQtQtQtQtQtQtQtQt",
".#.#.#.#.#.#.#.#.#.#.#.#.#.#.#.#.#.#.#.#.#.#",
".a.a.a.a.a.a.a.a.a.a.a.a.a.a.a.a.a.a.a.a.a.a",
".b.b.b.b.b.b.c.d.e.f.g.g.f.e.d.c.b.b.b.b.b.b",
".h.h.h.h.h.i.e.j.k.l.m.m.l.k.j.e.i.h.h.h.h.h",
".n.n.n.n.o.p.q.r.s.t.u.u.t.s.r.q.p.o.n.n.n.n",
".c.c.c.i.e.q.v.w.x.y.z.z.y.x.w.v.q.e.i.c.c.c",
".A.A.A.B.C.D.E.z.F.G.H.H.G.F.z.E.D.C.B.A.A.A",
".i.i.i.e.I.J.K.G.L.M.N.N.M.L.G.K.J.I.e.i.i.i",
".o.o.o.p.O.P.Q.R.S.J.T.T.J.S.R.Q.P.O.p.o.o.o",
".U.U.U.p.V.W.XQtQtQtQtQtQtQtQt.X.W.V.p.U.U.U",
".Y.Y.Y.p.Z.0.RQtQtQtQtQtQtQtQt.R.0.Z.p.Y.Y.Y",
".e.e.e.e.1.2.3.4.5.5.5.5.5.5.4.3.2.1.e.e.e.e",
".p.p.p.Y.k.6.3.7.J.J.J.J.J.J.7.3.6.k.Y.p.p.p",
".8.8.8.B.g.9.7.S.4.4.4.4.4.4.S.7.9.g.B.8.8.8",
".f.f.f.p.o#.##.T.S.7.7.7.7.S.T###..o.p.f.f.f",
"#a#a#a#a#b.A#c#d#e#f.4.4#f#e#d#c.A#b#a#a#a#a",
".g.g.g.g.g.e#g#b#h.D#i#i.D#h#b#g.e.g.g.g.g.g",
"#j#j#j#j#j#j#k.o.n.a#l#l.a.n.o#k#j#j#j#j#j#j",
".C.C.C.C.C.C.C.C.C.C.C.C.C.C.C.C.C.C.C.C.C.C",
".C.C.C.C.C.C.C.C.C.C.C.C.C.C.C.C.C.C.C.C.C.C",
".C.C.C.C.C.C.C.C.C.C.C.C.C.C.C.C.C.C.C.C.C.C",
".C.C.C.C.C.C.C.C.C.C.C.C.C.C.C.C.C.C.C.C.C.C",
"QtQtQtQtQtQtQtQtQtQtQtQtQtQtQtQtQtQtQtQtQtQt",
".#.#.#.#.#.#.#.#.#.#.#.#.#.#.#.#.#.#.#.#.#.#",
".a.a.a.a.a.a.a.a.a.a.a.a.a.a.a.a.a.a.a.a.a.a",
".b.b.b.b.b.b.c.d.e.f.g.g.f.e.d.c.b.b.b.b.b.b",
".h.h.h.h.h.i.e.j.k.l.m.m.l.k.j.e.i.h.h.h.h.h",
".n.n.n.n.o.p.q.r.s.t.u.u.t.s.r.q.p.o.n.n.n.n",
".c.c.c.i.e.q.v.w.x.y.z.z.y.x.w.v.q.e.i.c.c.c",
".A.A.A.B.C.D.E.z.F.G.H.H.G.F.z.E.D.C.B.A.A.A",
".i.i.i.e.I.J.K.G.L.M.N.N.M.L.G.K.J.I.e.i.i.i",
".o.o.o.p.O.P.Q.R.S.J.T.T.J.S.R.Q.P.O.p.o.o.o",
".U.U.U.p.V.W.XQtQtQtQtQtQtQtQt.X.W.V.p.U.U.U",
".Y.Y.Y.p.Z.0.RQtQtQtQtQtQtQtQt.R.0.Z.p.Y.Y.Y",
".e.e.e.e.1.2.3.4.5.5.5.5.5.5.4.3.2.1.e.e.e.e",
".p.p.p.Y.k.6.3.7.J.J.J.J.J.J.7.3.6.k.Y.p.p.p",
".8.8.8.B.g.9.7.S.4.4.4.4.4.4.S.7.9.g.B.8.8.8",
".f.f.f.p.o#.##.T.S.7.7.7.7.S.T###..o.p.f.f.f",
"#a#a#a#a#b.A#c#d#e#f.4.4#f#e#d#c.A#b#a#a#a#a",
".g.g.g.g.g.e#g#b#h.D#i#i.D#h#b#g.e.g.g.g.g.g",
"#j#j#j#j#j#j#k.o.n.a#l#l.a.n.o#k#j#j#j#j#j#j",
".C.C.C.C.C.C.C.C.C.C.C.C.C.C.C.C.C.C.C.C.C.C",
".C.C.C.C.C.C.C.C.C.C.C.C.C.C.C.C.C.C.C.C.C.C",
".C.C.C.C.C.C.C.C.C.C.C.C.C.C.C.C.C.C.C.C.C.C",
".C.C.C.C.C.C.C.C.C.C.C.C.C.C.C.C.C.C.C.C.C.C"};
