/* XPM */
static char *dummy[]={
"22 46 102 2",
".N c #000000",
".9 c #2e2e2e",
"## c #343434",
"#a c #3c3c3c",
"#b c #404040",
"#. c #424242",
"#j c #434343",
".8 c #454545",
"#d c #474747",
"#e c #4b4b4b",
"#s c #505050",
"#o c #525252",
"#f c #535353",
"#u c #565656",
"#g c #575757",
"#n c #595959",
"#t c #5c5c5c",
"#k c #5d5d5d",
"#p c #616161",
"#w c #636363",
"#l c #646464",
".7 c #656565",
"#m c #666666",
"#v c #686868",
"#q c #696969",
"#A c #6b6b6b",
"#x c #6c6c6c",
"#i c #6d6d6d",
"#y c #6e6e6e",
"#r c #6f6f6f",
"#G c #757575",
"#z c #7c7c7c",
"#F c #828282",
".2 c #a4a4a4",
".X c #a5a5a5",
"#D c #a6a6a6",
".P c #aaaaaa",
".0 c #ababab",
".L c #acacac",
"#E c #adadad",
"#B c #aeaeae",
".w c #b0b0b0",
".m c #b1b1b1",
".B c #b2b2b2",
".I c #b3b3b3",
".q c #b4b4b4",
".6 c #b5b5b5",
".l c #b6b6b6",
".4 c #b8b8b8",
".k c #bcbcbc",
".F c #bdbdbd",
".v c #c0c0c0",
".p c #c1c1c1",
"#h c #c2c2c2",
".Z c #c3c3c3",
".5 c #c6c6c6",
".j c #c7c7c7",
"#I c #c9c9c9",
".A c #cacaca",
"#C c #cbcbcb",
".V c #cccccc",
".g c #cdcdcd",
".3 c #cecece",
".f c #d0d0d0",
".1 c #d1d1d1",
".K c #d3d3d3",
".O c #d4d4d4",
".o c #d5d5d5",
".e c #d6d6d6",
".u c #d7d7d7",
".E c #d8d8d8",
".U c #d9d9d9",
".T c #dadada",
".W c #dbdbdb",
".z c #dcdcdc",
".S c #dddddd",
".Y c #dedede",
".d c #dfdfdf",
"#c c #e0e0e0",
".i c #e1e1e1",
".t c #e2e2e2",
".H c #e3e3e3",
".D c #e4e4e4",
".c c #e6e6e6",
"#H c #e7e7e7",
".s c #e8e8e8",
".Q c #e9e9e9",
".n c #eaeaea",
".h c #ebebeb",
".x c #ececec",
".b c #ededed",
".a c #efefef",
".R c #f0f0f0",
".# c #f1f1f1",
"#J c #f2f2f2",
".M c #f3f3f3",
".J c #f5f5f5",
".r c #f7f7f7",
".G c #f8f8f8",
".C c #fafafa",
".y c #fcfcfc",
"Qt c #ffffff",
"QtQtQtQtQtQtQtQtQtQtQtQtQtQtQtQtQtQtQtQtQtQt",
".#.#.#.#.#.#.#.#.#.#.#.#.#.#.#.#.#.#.#.#.#.#",
".a.a.a.a.a.a.a.a.a.a.a.a.a.a.a.a.a.a.a.a.a.a",
".b.b.b.b.b.b.c.d.e.f.g.g.f.e.d.c.b.b.b.b.b.b",
".h.h.h.h.h.i.e.j.k.l.m.m.l.k.j.e.i.h.h.h.h.h",
".n.n.n.n.i.o.p.q.o.n.r.r.n.o.q.p.o.i.n.n.n.n",
".s.s.s.t.u.v.w.x.y.y.y.y.y.y.x.w.v.u.t.s.s.s",
".c.c.c.z.A.B.h.C.C.C.C.C.C.C.C.h.B.A.z.c.c.c",
".D.D.D.E.F.f.G.G.G.G.G.G.G.G.G.G.f.F.E.D.D.D",
".H.H.H.o.I.i.J.J.J.J.J.J.J.J.J.J.i.I.o.H.H.H",
".i.i.i.K.L.b.M.N.N.N.N.N.N.N.N.M.b.L.K.i.i.i",
".d.d.d.O.P.Q.R.N.N.N.N.N.N.N.N.R.Q.P.O.d.d.d",
".S.S.S.e.w.T.b.b.b.b.b.b.b.b.b.b.T.w.e.S.S.S",
".z.z.z.U.k.j.h.h.h.h.h.h.h.h.h.h.j.k.U.z.z.z",
".T.T.T.z.V.L.T.s.s.s.s.s.s.s.s.T.L.V.z.T.T.T",
".E.E.E.T.W.p.X.E.c.c.c.c.c.c.E.X.p.W.T.E.E.E",
".e.e.e.e.T.Y.Z.0.p.1.d.d.1.p.0.Z.Y.T.e.e.e.e",
".o.o.o.o.o.U.H.e.p.m.2.2.m.p.e.H.U.o.o.o.o.o",
".K.K.K.K.K.K.o.Y.n.Q.Q.Q.Q.n.Y.o.K.K.K.K.K.K",
".1.1.1.1.1.1.1.1.1.1.1.1.1.1.1.1.1.1.1.1.1.1",
".1.1.1.1.1.1.1.1.1.1.1.1.1.1.1.1.1.1.1.1.1.1",
".1.1.1.1.1.1.1.1.1.1.1.1.1.1.1.1.1.1.1.1.1.1",
".1.1.1.1.1.1.1.1.1.1.1.1.1.1.1.1.1.1.1.1.1.1",
"QtQtQtQtQtQtQtQtQtQtQtQtQtQtQtQtQtQtQtQtQtQt",
".#.#.#.#.#.#.#.#.#.#.#.#.#.#.#.#.#.#.#.#.#.#",
".a.a.a.a.a.a.a.a.a.a.a.a.a.a.a.a.a.a.a.a.a.a",
".b.b.b.b.b.b.s.t.S.E.o.o.E.S.t.s.b.b.b.b.b.b",
".h.h.h.h.h.D.S.3.p.4.B.B.4.p.3.S.D.h.h.h.h.h",
".n.n.n.n.H.z.5.6.7.8.9.9.8.7.6.5.z.H.n.n.n.n",
".s.s.s.D.S.5.w#.###a#b#b#a###..w.5.S.D.s.s.s",
".c.c.c#c.1.q#d#b#e#f#g#g#f#e#b#d.q.1#c.c.c.c",
".D.D.D.S#h#i#j#f#k#l#m#m#l#k#f#j#i#h.S.D.D.D",
".H.H.H.z.l#n#o#p#q#i#r#r#i#q#p#o#n.l.z.H.H.H",
".i.i.i.z.L#s#tQtQtQtQtQtQtQtQt#t#s.L.z.i.i.i",
".d.d.d.z.0#u#pQtQtQtQtQtQtQtQt#p#u.0.z.d.d.d",
".S.S.S.S.I#v#w#x#y#y#y#y#y#y#x#w#v.I.S.S.S.S",
".z.z.z.d.p#z#w#A#i#i#i#i#i#i#A#w#z.p.d.z.z.z",
".T.T.T#c.o#B#A#q#x#x#x#x#x#x#q#A#B.o#c.T.T.T",
".E.E.E.z.H#C#D#r#q#A#A#A#A#q#r#D#C.H.z.E.E.E",
".e.e.e.e.Y.c.g#E#F#G#x#x#G#F#E.g.c.Y.e.e.e.e",
".o.o.o.o.o.S#H.Y#I.q.X.X.q#I.Y#H.S.o.o.o.o.o",
".K.K.K.K.K.K.u.H.n.a#J#J.a.n.H.u.K.K.K.K.K.K",
".1.1.1.1.1.1.1.1.1.1.1.1.1.1.1.1.1.1.1.1.1.1",
".1.1.1.1.1.1.1.1.1.1.1.1.1.1.1.1.1.1.1.1.1.1",
".1.1.1.1.1.1.1.1.1.1.1.1.1.1.1.1.1.1.1.1.1.1",
".1.1.1.1.1.1.1.1.1.1.1.1.1.1.1.1.1.1.1.1.1.1"};
