/* XPM */
static char *dummy[]={
"22 46 58 1",
"u c #a1a1a1",
"t c #a3a3a3",
"1 c #a5a5a5",
"T c #a6a6a6",
"w c #a7a7a7",
"s c #a8a8a8",
"J c #ababab",
"H c #acacac",
"B c #adadad",
"P c #aeaeae",
"C c #afafaf",
"v c #b0b0b0",
"m c #b2b2b2",
"K c #b3b3b3",
"A c #b4b4b4",
"r c #b5b5b5",
"E c #b6b6b6",
"l c #b8b8b8",
"N c #b9b9b9",
"X c #bcbcbc",
"F c #bebebe",
"L c #c0c0c0",
"k c #c1c1c1",
"D c #c2c2c2",
"q c #c6c6c6",
"Q c #c8c8c8",
"0 c #c9c9c9",
"M c #cacaca",
"S c #cbcbcb",
"W c #cdcdcd",
"j c #cecece",
"z c #d1d1d1",
"R c #d2d2d2",
"Y c #d3d3d3",
"g c #d5d5d5",
"U c #d6d6d6",
"2 c #d7d7d7",
"f c #d8d8d8",
"O c #dadada",
"p c #dcdcdc",
"e c #dddddd",
"V c #dedede",
"I c #dfdfdf",
"y c #e0e0e0",
"G c #e1e1e1",
"d c #e2e2e2",
"o c #e3e3e3",
"i c #e4e4e4",
"x c #e6e6e6",
"Z c #e7e7e7",
"c c #e8e8e8",
"n c #eaeaea",
"h c #ebebeb",
"b c #ededed",
"a c #efefef",
"# c #f1f1f1",
"3 c #f2f2f2",
". c #ffffff",
"......................",
"######################",
"aaaaaaaaaaaaaaaaaaaaaa",
"bbbbbbcdefggfedcbbbbbb",
"hhhhhiejklmmlkjeihhhhh",
"nnnnopqrstuutsrqponnnn",
"cccieqvwwwwwwwwvqeiccc",
"xxxyzABCCCCCCCCBAzyxxx",
"iiieDvllllllllllvDeiii",
"ooopElFFFFFFFFFFlEpooo",
"GGGpHFDDDDDDDDDDFHpGGG",
"IIIpJDqqqqqqqqqqDJpIII",
"eeeeKLMMMMMMMMMMLKeeee",
"pppIkNjjjjjjjjjjNkIppp",
"OOOygPQRRRRRRRRQPgyOOO",
"fffpoSTMggggggMTSopfff",
"UUUUVxWBXQYYQXBWxVUUUU",
"gggggeZV0A11A0VZeggggg",
"YYYYYY2ona33ano2YYYYYY",
"zzzzzzzzzzzzzzzzzzzzzz",
"zzzzzzzzzzzzzzzzzzzzzz",
"zzzzzzzzzzzzzzzzzzzzzz",
"zzzzzzzzzzzzzzzzzzzzzz",
"......................",
"######################",
"aaaaaaaaaaaaaaaaaaaaaa",
"bbbbbbcdefggfedcbbbbbb",
"hhhhhiejklmmlkjeihhhhh",
"nnnnopqrstuutsrqponnnn",
"cccieqvwwwwwwwwvqeiccc",
"xxxyzABCCCCCCCCBAzyxxx",
"iiieDvllllllllllvDeiii",
"ooopElFFFFFFFFFFlEpooo",
"GGGpHFDDDDDDDDDDFHpGGG",
"IIIpJDqqqqqqqqqqDJpIII",
"eeeeKLMMMMMMMMMMLKeeee",
"pppIkNjjjjjjjjjjNkIppp",
"OOOygPQRRRRRRRRQPgyOOO",
"fffpoSTMggggggMTSopfff",
"UUUUVxWBXQYYQXBWxVUUUU",
"gggggeZV0A11A0VZeggggg",
"YYYYYY2ona33ano2YYYYYY",
"zzzzzzzzzzzzzzzzzzzzzz",
"zzzzzzzzzzzzzzzzzzzzzz",
"zzzzzzzzzzzzzzzzzzzzzz",
"zzzzzzzzzzzzzzzzzzzzzz"};
