/* XPM */
static char *dummy[]={
"22 46 75 2",
".q c #2e2e2e",
".u c #343434",
".v c #3c3c3c",
".w c #404040",
".t c #424242",
".G c #434343",
".p c #454545",
".B c #474747",
".C c #4b4b4b",
".Q c #505050",
".L c #525252",
".D c #535353",
".U c #565656",
".K c #595959",
".R c #5c5c5c",
".H c #5d5d5d",
".M c #616161",
".X c #636363",
".I c #646464",
".o c #656565",
".W c #686868",
".N c #696969",
".1 c #6b6b6b",
".Y c #6c6c6c",
".F c #6d6d6d",
".Z c #6e6e6e",
".8 c #6f6f6f",
"#c c #757575",
".0 c #7c7c7c",
"#b c #828282",
"#f c #a5a5a5",
".7 c #a6a6a6",
".T c #ababab",
".P c #acacac",
"#a c #adadad",
".4 c #aeaeae",
".s c #b0b0b0",
".i c #b2b2b2",
".V c #b3b3b3",
".A c #b4b4b4",
".n c #b5b5b5",
".J c #b6b6b6",
".h c #b8b8b8",
".g c #c1c1c1",
".E c #c2c2c2",
".m c #c6c6c6",
"#e c #c9c9c9",
".6 c #cbcbcb",
"## c #cdcdcd",
".f c #cecece",
".z c #d1d1d1",
"#g c #d3d3d3",
".3 c #d5d5d5",
".9 c #d6d6d6",
"#h c #d7d7d7",
".5 c #d8d8d8",
".2 c #dadada",
".l c #dcdcdc",
".e c #dddddd",
"#. c #dedede",
".S c #dfdfdf",
".y c #e0e0e0",
".O c #e1e1e1",
".k c #e3e3e3",
".d c #e4e4e4",
".x c #e6e6e6",
"#d c #e7e7e7",
".r c #e8e8e8",
".j c #eaeaea",
".c c #ebebeb",
".b c #ededed",
".a c #efefef",
".# c #f1f1f1",
"#i c #f2f2f2",
"Qt c #ffffff",
"QtQtQtQtQtQtQtQtQtQtQtQtQtQtQtQtQtQtQtQtQtQt",
".#.#.#.#.#.#.#.#.#.#.#.#.#.#.#.#.#.#.#.#.#.#",
".a.a.a.a.a.a.a.a.a.a.a.a.a.a.a.a.a.a.a.a.a.a",
".b.b.b.b.b.b.b.b.b.b.b.b.b.b.b.b.b.b.b.b.b.b",
".c.c.c.c.c.d.e.f.g.h.i.i.h.g.f.e.d.c.c.c.c.c",
".j.j.j.j.k.l.m.n.o.p.q.q.p.o.n.m.l.k.j.j.j.j",
".r.r.r.d.e.m.s.t.u.v.w.w.v.u.t.s.m.e.d.r.r.r",
".x.x.x.y.z.A.B.w.C.DQtQt.D.C.w.B.A.z.y.x.x.x",
".d.d.d.e.E.F.G.D.H.IQtQt.I.H.D.G.F.E.e.d.d.d",
".k.k.k.l.J.K.L.M.N.FQtQt.F.N.M.L.K.J.l.k.k.k",
".O.O.O.l.P.Q.RQtQtQtQtQtQtQtQt.R.Q.P.l.O.O.O",
".S.S.S.l.T.U.MQtQtQtQtQtQtQtQt.M.U.T.l.S.S.S",
".e.e.e.e.V.W.X.Y.Z.ZQtQt.Z.Z.Y.X.W.V.e.e.e.e",
".l.l.l.S.g.0.X.1.F.FQtQt.F.F.1.X.0.g.S.l.l.l",
".2.2.2.y.3.4.1.N.Y.YQtQt.Y.Y.N.1.4.3.y.2.2.2",
".5.5.5.l.k.6.7.8.N.1.1.1.1.N.8.7.6.k.l.5.5.5",
".9.9.9.9#..x###a#b#c.Y.Y#c#b#a##.x#..9.9.9.9",
".3.3.3.3.3.e#d#.#e.A#f#f.A#e#.#d.e.3.3.3.3.3",
"#g#g#g#g#g#g#h.k.j.a#i#i.a.j.k#h#g#g#g#g#g#g",
".z.z.z.z.z.z.z.z.z.z.z.z.z.z.z.z.z.z.z.z.z.z",
".z.z.z.z.z.z.z.z.z.z.z.z.z.z.z.z.z.z.z.z.z.z",
".z.z.z.z.z.z.z.z.z.z.z.z.z.z.z.z.z.z.z.z.z.z",
".z.z.z.z.z.z.z.z.z.z.z.z.z.z.z.z.z.z.z.z.z.z",
"QtQtQtQtQtQtQtQtQtQtQtQtQtQtQtQtQtQtQtQtQtQt",
".#.#.#.#.#.#.#.#.#.#.#.#.#.#.#.#.#.#.#.#.#.#",
".a.a.a.a.a.a.a.a.a.a.a.a.a.a.a.a.a.a.a.a.a.a",
".b.b.b.b.b.b.b.b.b.b.b.b.b.b.b.b.b.b.b.b.b.b",
".c.c.c.c.c.d.e.f.g.h.i.i.h.g.f.e.d.c.c.c.c.c",
".j.j.j.j.k.l.m.n.o.p.q.q.p.o.n.m.l.k.j.j.j.j",
".r.r.r.d.e.m.s.t.u.v.w.w.v.u.t.s.m.e.d.r.r.r",
".x.x.x.y.z.A.B.w.C.DQtQt.D.C.w.B.A.z.y.x.x.x",
".d.d.d.e.E.F.G.D.H.IQtQt.I.H.D.G.F.E.e.d.d.d",
".k.k.k.l.J.K.L.M.N.FQtQt.F.N.M.L.K.J.l.k.k.k",
".O.O.O.l.P.Q.RQtQtQtQtQtQtQtQt.R.Q.P.l.O.O.O",
".S.S.S.l.T.U.MQtQtQtQtQtQtQtQt.M.U.T.l.S.S.S",
".e.e.e.e.V.W.X.Y.Z.ZQtQt.Z.Z.Y.X.W.V.e.e.e.e",
".l.l.l.S.g.0.X.1.F.FQtQt.F.F.1.X.0.g.S.l.l.l",
".2.2.2.y.3.4.1.N.Y.YQtQt.Y.Y.N.1.4.3.y.2.2.2",
".5.5.5.l.k.6.7.8.N.1.1.1.1.N.8.7.6.k.l.5.5.5",
".9.9.9.9#..x###a#b#c.Y.Y#c#b#a##.x#..9.9.9.9",
".3.3.3.3.3.e#d#.#e.A#f#f.A#e#.#d.e.3.3.3.3.3",
"#g#g#g#g#g#g#h.k.j.a#i#i.a.j.k#h#g#g#g#g#g#g",
".z.z.z.z.z.z.z.z.z.z.z.z.z.z.z.z.z.z.z.z.z.z",
".z.z.z.z.z.z.z.z.z.z.z.z.z.z.z.z.z.z.z.z.z.z",
".z.z.z.z.z.z.z.z.z.z.z.z.z.z.z.z.z.z.z.z.z.z",
".z.z.z.z.z.z.z.z.z.z.z.z.z.z.z.z.z.z.z.z.z.z"};
