/* XPM */
static char * icewm_xpm[] = {
"48 20 117 2",
"  	c None",
". 	c #FFFFFF",
"+ 	c #F0F0F0",
"@ 	c #E7E7E7",
"# 	c #CECECE",
"$ 	c #EFEFEF",
"% 	c #DADADA",
"& 	c #BDBDBD",
"* 	c #D0D0D0",
"= 	c #EDEDED",
"- 	c #E5E5E5",
"; 	c #D5D5D5",
"> 	c #A4A4A4",
", 	c #A1A1A1",
"' 	c #D4D4D4",
") 	c #EAEAEA",
"! 	c #D7D7D7",
"~ 	c #BFBFBF",
"{ 	c #9F9F9F",
"] 	c #A6A6A6",
"^ 	c #E8E8E8",
"/ 	c #EBEBEB",
"( 	c #E6E6E6",
"_ 	c #D3D3D3",
": 	c #9C9C9C",
"< 	c #A0A0A0",
"[ 	c #B9B9B9",
"} 	c #E9E9E9",
"| 	c #D6D6D6",
"1 	c #929292",
"2 	c #4E4E4E",
"3 	c #7F7F7F",
"4 	c #9E9E9E",
"5 	c #9B9B9B",
"6 	c #CCCCCC",
"7 	c #636363",
"8 	c #C8C8C8",
"9 	c #838383",
"0 	c #6A6A6A",
"a 	c #999999",
"b 	c #DCDCDC",
"c 	c #D2D2D2",
"d 	c #BABABA",
"e 	c #797979",
"f 	c #A8A8A8",
"g 	c #727272",
"h 	c #989898",
"i 	c #A2A2A2",
"j 	c #E4E4E4",
"k 	c #C2C2C2",
"l 	c #C6C6C6",
"m 	c #DFDFDF",
"n 	c #CBCBCB",
"o 	c #787878",
"p 	c #E2E2E2",
"q 	c #E3E3E3",
"r 	c #9A9A9A",
"s 	c #7A7A7A",
"t 	c #949494",
"u 	c #E0E0E0",
"v 	c #CFCFCF",
"w 	c #A9A9A9",
"x 	c #AAAAAA",
"y 	c #D1D1D1",
"z 	c #C3C3C3",
"A 	c #747474",
"B 	c #B2B2B2",
"C 	c #717171",
"D 	c #8F8F8F",
"E 	c #ACACAC",
"F 	c #BBBBBB",
"G 	c #B6B6B6",
"H 	c #8C8C8C",
"I 	c #B4B4B4",
"J 	c #DBDBDB",
"K 	c #707070",
"L 	c #8A8A8A",
"M 	c #919191",
"N 	c #D8D8D8",
"O 	c #B1B1B1",
"P 	c #8B8B8B",
"Q 	c #616161",
"R 	c #7E7E7E",
"S 	c #DEDEDE",
"T 	c #DDDDDD",
"U 	c #C7C7C7",
"V 	c #B5B5B5",
"W 	c #909090",
"X 	c #8D8D8D",
"Y 	c #858585",
"Z 	c #898989",
"` 	c #868686",
" .	c #696969",
"..	c #808080",
"+.	c #C9C9C9",
"@.	c #939393",
"#.	c #545454",
"$.	c #6B6B6B",
"%.	c #C1C1C1",
"&.	c #7D7D7D",
"*.	c #626262",
"=.	c #AEAEAE",
"-.	c #6E6E6E",
";.	c #969696",
">.	c #8E8E8E",
",.	c #B3B3B3",
"'.	c #6F6F6F",
").	c #C0C0C0",
"!.	c #7B7B7B",
"~.	c #D9D9D9",
"{.	c #C4C4C4",
"].	c #959595",
"^.	c #C5C5C5",
"/.	c #B8B8B8",
"(.	c #979797",
"_.	c #ABABAB",
":.	c #B7B7B7",
". . . . . . . . . . . . . . . . . . . . . . . . . . . . . . . . . . . . . . . . . . . . . . . . ",
"+ + + + + + + + + + + + + + + + + + + + + + + + @ # + + + + + + + + + + + + + + + + + + + + + + ",
"$ $ $ $ $ $ $ $ $ $ $ $ $ $ $ $ $ $ $ $ $ $ $ $ % & * $ $ $ $ $ $ $ $ $ $ $ $ $ $ $ $ $ $ $ $ $ ",
"= = = = = = = = = = = = = = = = = = = = = = = - ; > , ' = = = = = = = = = = = = = = = = = = = = ",
") ) ) ) ) ) ) ) ) ) ) ) ) ) ) ) ) ) ) ) ) ) ) ! ~ , { ] ^ ) ) ) ) ) ) ) ) ) ) ) ) ) ) ) ) ) ) ) ",
"/ / / / / / / / / / / / / / / / / / / / / / ( _ ] : < { [ / / / / / / / / / / / / / / / / / / / ",
"} } } } } } } } } } } } } } } } } } } } } } | & 1 2 3 4 5 ' } } } } } } } } } } } } } } } } } } ",
"@ @ @ @ @ @ @ @ @ @ @ @ @ @ @ @ @ @ @ @ @ - 6 < 7 8 9 0 a < b @ @ @ @ @ @ @ @ @ ' @ @ @ @ @ @ @ ",
"( ( ( ( ( ( ( ( ( ( ( ( - ( ( ( ( ( ( ( ( c d e f ( ( 5 g h i j ( ( ( ( ( ( ( % k ! ( ( ( ( ( ( ",
"j j j j j j j j j j j _ l j j j j j j j m n 5 o p j j q r s t [ j j j j j j u v w x q j j j j j ",
"p p p p p p p p p p y z 5 u p p p p p p c f A | p p p p p B C D n p p p p p c E 5 a F p p p p p ",
"u u u u u u u u m v G D H I u u u u u J G K k u u u u u u u | L M N u u u % O P Q R t z u u u u ",
"S S S S S S S T U V W X L P N S S S S * Y V S S S S S S S S S T Z E S S S l `  .* : ..W * S S S ",
"S S S S S S b +.E @.3 #.$.Z d S S S T I 5 S S S S S S S S S S S N a %.S N a , T S S ] &.< T S S ",
"b b b b b % k : Y *.&.l =.-.M J b b # ;.% b b b b b b b b b b b b J G +.G l b b b b b 6 >.,.b b ",
"% % % % ; d X '.W 8 % % % ).!.& % ~.f v % % % % % % % % % % % % % % % ' N % % % % % % % ~.> {.% ",
"N N N c O R Z _ N N N N N N F ].N ^.F N N N N N N N N N N N N N N N N N N N N N N N N N N N /.! ",
"| | * { (.F | | | | | | | | | _.8 [ ; | | | | | | | | | | | | | | | | | | | | | | | | | | | ; c ",
"| # :.# | | | | | | | | | | | | n | | | | | | | | | | | | | | | | | | | | | | | | | | | | | | | ",
"; _ ; ; ; ; ; ; ; ; ; ; ; ; ; ; ; ; ; ; ; ; ; ; ; ; ; ; ; ; ; ; ; ; ; ; ; ; ; ; ; ; ; ; ; ; ; ; "};
