/* XPM */
static char * icewm_xpm[] = {
"48 20 138 2",
"  	c None",
". 	c #FFFFFF",
"+ 	c #F1F1F1",
"@ 	c #939393",
"# 	c #818181",
"$ 	c #F0F0F0",
"% 	c #DDDDDD",
"& 	c #7C7C7C",
"* 	c #6D6D6D",
"= 	c #AAAAAA",
"- 	c #FCFCFC",
"; 	c #FAFAFA",
"> 	c #A3A3A3",
", 	c #878787",
"' 	c #E1E1E1",
") 	c #898989",
"! 	c #797979",
"~ 	c #747474",
"{ 	c #B9B9B9",
"] 	c #E9E9E9",
"^ 	c #A0A0A0",
"/ 	c #727272",
"( 	c #D7D7D7",
"_ 	c #E7E7E7",
": 	c #828282",
"< 	c #767676",
"[ 	c #848484",
"} 	c #EDEDED",
"| 	c #A7A7A7",
"1 	c #D6D6D6",
"2 	c #999999",
"3 	c #787878",
"4 	c #757575",
"5 	c #888888",
"6 	c #EFEFEF",
"7 	c #EBEBEB",
"8 	c #ADADAD",
"9 	c #6C6C6C",
"0 	c #C4C4C4",
"a 	c #EEEEEE",
"b 	c #979797",
"c 	c #C9C9C9",
"d 	c #A9A9A9",
"e 	c #CDCDCD",
"f 	c #B3B3B3",
"g 	c #6E6E6E",
"h 	c #ECECEC",
"i 	c #B4B4B4",
"j 	c #6B6B6B",
"k 	c #B1B1B1",
"l 	c #707070",
"m 	c #E4E4E4",
"n 	c #9F9F9F",
"o 	c #737373",
"p 	c #CFCFCF",
"q 	c #7F7F7F",
"r 	c #7B7B7B",
"s 	c #686868",
"t 	c #EAEAEA",
"u 	c #B7B7B7",
"v 	c #6A6A6A",
"w 	c #CBCBCB",
"x 	c #DEDEDE",
"y 	c #949494",
"z 	c #C1C1C1",
"A 	c #E0E0E0",
"B 	c #8B8B8B",
"C 	c #A1A1A1",
"D 	c #BCBCBC",
"E 	c #A6A6A6",
"F 	c #909090",
"G 	c #E3E3E3",
"H 	c #DFDFDF",
"I 	c #8D8D8D",
"J 	c #9C9C9C",
"K 	c #868686",
"L 	c #ABABAB",
"M 	c #5C5C5C",
"N 	c #808080",
"O 	c #CECECE",
"P 	c #C8C8C8",
"Q 	c #858585",
"R 	c #D2D2D2",
"S 	c #D8D8D8",
"T 	c #7A7A7A",
"U 	c #676767",
"V 	c #E6E6E6",
"W 	c #7E7E7E",
"X 	c #8C8C8C",
"Y 	c #DCDCDC",
"Z 	c #777777",
"` 	c #838383",
" .	c #D9D9D9",
"..	c #E5E5E5",
"+.	c #929292",
"@.	c #DADADA",
"#.	c #AFAFAF",
"$.	c #AEAEAE",
"%.	c #A2A2A2",
"&.	c #E2E2E2",
"*.	c #919191",
"=.	c #DBDBDB",
"-.	c #717171",
";.	c #959595",
">.	c #D1D1D1",
",.	c #A4A4A4",
"'.	c #656565",
").	c #C2C2C2",
"!.	c #8F8F8F",
"~.	c #D5D5D5",
"{.	c #8A8A8A",
"].	c #D0D0D0",
"^.	c #D3D3D3",
"/.	c #A5A5A5",
"(.	c #C6C6C6",
"_.	c #C3C3C3",
":.	c #4C4C4C",
"<.	c #BDBDBD",
"[.	c #D4D4D4",
"}.	c #575757",
"|.	c #CCCCCC",
"1.	c #B6B6B6",
"2.	c #969696",
"3.	c #BABABA",
"4.	c #7D7D7D",
"5.	c #B5B5B5",
"6.	c #C5C5C5",
"7.	c #B0B0B0",
"8.	c #B2B2B2",
"9.	c #6F6F6F",
"0.	c #9B9B9B",
"a.	c #9A9A9A",
"b.	c #ACACAC",
"c.	c #989898",
"d.	c #BFBFBF",
"e.	c #9E9E9E",
"f.	c #C0C0C0",
"g.	c #C7C7C7",
". . . . . . . . . . . . . . . . . . . . . . . . . . + @ # $ . % & * = - . ; > , ' ) ! ~ { . . . ",
"$ $ $ $ $ $ $ $ $ $ $ $ $ $ $ $ $ $ $ $ $ $ $ $ $ ] ^ / ( $ _ : < [ ' $ } | ! 1 2 3 4 5 $ $ $ $ ",
"6 6 6 6 6 6 6 6 6 6 6 6 6 6 6 6 6 6 6 6 6 6 6 6 7 8 9 0 6 a b 3 ~ c 6 7 d ~ e f ! 3 g a 6 6 6 6 ",
"} } } } } } } } } } } } } } } } } } } } } } } h i j k } } f ! l d } m n o 0 p q r s 0 } } } } } ",
"t t t t t t t t t t t t t t t t t t t t t t t u v | t t w & 4 , t x y < z A B r v C t t t t t t ",
"7 7 7 7 7 7 7 7 7 7 7 7 7 7 7 7 7 7 7 7 7 7 D v E 7 7 A F & j G H I & c 7 J ! / K t 7 7 7 7 7 7 ",
"] ] ] ] ] ] ] ] ] ] ] ] ] ] ] ] ] ] ] ] ] 0 * C _ ] ] L & M c ' 5 N O ] u 3 r v O ] ] ] ] ] ] ( ",
"_ _ _ _ _ _ _ _ _ _ _ _ _ _ _ _ _ _ _ _ O ~ 2 ' _ _ P q 9 E ' Q q R _ S ! T U | _ _ _ _ _ _ ' [ ",
"V V V V V V V V V V V V V V V V V V V ( W X % V V Y @ Z q S ` r  .V V X ! ~ N ( V V V V V ..+.l ",
"m m m m m m m m m m m m m m m m m m @., [ S m m G #.3 g D N & Y m m $.! 3 l #.m m m m m G %.l 2 ",
"&.&.&.&.&.&.&.&.&.&.&.&.&.&.&.&.&.@.X # R &.&.&.P ! * *.W [ =.&.&.R ` ! o : &.&.&.&.&.&.i -.;.&.",
"A A A A A A A A A A A A A A A A ( X ` >.A A A  ., ~ j o X 1 A A A ,.3 r '.>.A A A A A ).4 !.H A ",
"x x x x x x x x x x x x x x x ~.{.5 ].x x x x n 3 g v !.^.x x x P ` T U /.x x x x x ].r ` 1 x x ",
"x x x i R x x x x x x x x x ~., X R x x x x c q ! o , ( x x x Y = ! T l x x x x x Y K < R x x (.",
"Y _.T o :.<.Y Y Y Y Y Y Y O q X [.Y Y Y Y Y n ! Z q Y Y Y Y Y p Q r }.|.Y Y Y Y Y *.v c Y Y #.4 ",
"@., ! r '.!.S @.@.@.@.1 1.& 2.@.@.@.@.@.@.( !.T # @.@.@.@.@. .u ! l I S @.@.@.@.> v 3.@.p 2.5 @.",
"S 4.! r v 5.S S S S 6.+.q 7.S S S S S S S ( i 8.S S S S S S 1 *.! '.6.S S S S i 9.8 S 3.K 0.S S ",
"1 /.4 U ^ 1 1 c { n 5 J p 1 1 1 1 1 1 1 1 1 1 1 1 1 1 1 1 1 c ! j *.[.1 1 1 ).Z > (.a., 8 1 1 1 ",
"1 >.b., Q {.I c.J ,.d.1 1 1 1 1 1 1 1 1 1 1 1 1 1 1 1 1 1 1 $.! * $.1 1 1 e Q Q J Q e.6.1 1 1 1 ",
"~.~.~.e 0 f.z g.e [.~.~.~.~.~.~.~.~.~.~.~.~.~.~.~.~.~.~.~.~.C -.< R ~.~.~.@ 9 ~ c._.^.~.~.~.~.~."};
