/* XPM */
static char *dummy[]={
"5 48 21 1",
"s c #cdcdcd",
"r c #cfcfcf",
"q c #d2d2d2",
"p c #d5d5d5",
"o c #d6d6d6",
"n c #d8d8d8",
"m c #dadada",
"l c #dcdcdc",
"k c #dedede",
"j c #e0e0e0",
"i c #e2e2e2",
"h c #e4e4e4",
"g c #e6e6e6",
"f c #e7e7e7",
"e c #e9e9e9",
"c c #eaeaea",
"d c #ebebeb",
"b c #ededed",
"a c #efefef",
"# c #f0f0f0",
". c #ffffff",
".....",
"#####",
"aaaaa",
"bbbbb",
"ccccc",
"ddddd",
"eeeee",
"fffff",
"ggggg",
"hhhhh",
"iiiii",
"jjjjj",
"kkkkk",
"kkkkk",
"lllll",
"mmmmm",
"nnnnn",
"ooooo",
"ooooo",
"ppppp",
"qqqqq",
"rrrrr",
"sssss",
"sssss",
"sssss",
"sssss",
"sssss",
"sssss",
"sssss",
"sssss",
"sssss",
"sssss",
"sssss",
"sssss",
"sssss",
"sssss",
"sssss",
"sssss",
"sssss",
"sssss",
"sssss",
"sssss",
"sssss",
"sssss",
"sssss",
"sssss",
"sssss",
"sssss"};
