/* XPM */
static char *dummy[]={
"2 24 17 1",
"o c #b5b5b5",
"n c #b6b6b6",
"m c #b9b9b9",
"l c #bbbbbb",
"k c #bdbdbd",
"j c #bebebe",
"i c #c0c0c0",
"h c #c1c1c1",
"g c #c2c2c2",
"f c #c4c4c4",
"e c #c5c5c5",
"d c #c7c7c7",
"c c #c9c9c9",
"b c #cacaca",
"a c #cccccc",
"# c #cdcdcd",
". c #cfcfcf",
"..",
"..",
"##",
"aa",
"bb",
"bb",
"cc",
"dd",
"dd",
"ee",
"ff",
"gg",
"hh",
"hh",
"ii",
"jj",
"kk",
"ll",
"ll",
"ll",
"mm",
"nn",
"oo",
"oo"};
