/* XPM */
static char * folder_16x16_xpm[] = {
"16 16 89 1",
" 	c None",
".	c #767865",
"+	c #767965",
"@	c #757865",
"#	c #757864",
"$	c #B4B6A8",
"%	c #B6B8A9",
"&	c #B5B7A7",
"*	c #B3B5A5",
"=	c #B1B3A3",
"-	c #A9AB9B",
";	c #787B67",
">	c #747663",
",	c #B2B4A4",
"'	c #90937C",
")	c #8A8E77",
"!	c #797C69",
"~	c #737662",
"{	c #777965",
"]	c #70725E",
"^	c #A8AB99",
"/	c #8C8F78",
"(	c #7A7D68",
"_	c #C1C1B2",
":	c #DBDBCE",
"<	c #D4D4C6",
"[	c #6E705E",
"}	c #767765",
"|	c #70725F",
"1	c #797B68",
"2	c #BABBAC",
"3	c #D1D1C2",
"4	c #BFBFAA",
"5	c #D8D8CB",
"6	c #6F725F",
"7	c #C4C5B6",
"8	c #D6D6C9",
"9	c #D5D5C7",
"0	c #C9C9B7",
"a	c #BDBDA7",
"b	c #BCBCA6",
"c	c #D2D2C4",
"d	c #6B6E5B",
"e	c #676957",
"f	c #D3D4C5",
"g	c #BCBDA7",
"h	c #CFD0C0",
"i	c #636554",
"j	c #D3D3C4",
"k	c #C0C1AC",
"l	c #CFCFBF",
"m	c #636454",
"n	c #5E6050",
"o	c #D2D4C5",
"p	c #C4C6B2",
"q	c #5A5B4C",
"r	c #C9CAB7",
"s	c #D0D1C0",
"t	c #565748",
"u	c #D4D6C6",
"v	c #CDCFBD",
"w	c #D1D3C2",
"x	c #525245",
"y	c #CFD0C1",
"z	c #C9CAB9",
"A	c #CACBB9",
"B	c #CACBBA",
"C	c #CBCBBB",
"D	c #CBCCBB",
"E	c #CBCCBA",
"F	c #515245",
"G	c #505145",
"H	c #BEBEAE",
"I	c #CFCFC0",
"J	c #D3D3C5",
"K	c #D6D6CA",
"L	c #DADACE",
"M	c #DEDED3",
"N	c #DCDCD1",
"O	c #D8D8CC",
"P	c #CDCDBD",
"Q	c #CACAB9",
"R	c #ABAB95",
"S	c #505045",
"T	c #4F4F43",
"U	c #72725F",
"V	c #A1A184",
"W	c #4E4E42",
"X	c #4A4A3E",
"                ",
" .+@@@#         ",
"#$%&*=-;        ",
">,''')!~~~~~~~~{",
"]^''/(_:::::::<~",
"[}||123444444456",
"[78890abbbbbbbcd",
"efgggggggggggghe",
"ijkkkkkkkkkkkklm",
"nopppppppppppphn",
"qfrrrrrrrrrrrrsq",
"tuvvvvvvvvvvvvwt",
"xyzABBCDCCBBzzEF",
"GHCIJKLMNO93PQRS",
"TUVVVVVVVVVVVVUW",
" TXXXXXXXXXXXXT "};
