/* XPM */
static char * folder_32x32_xpm[] = {
"32 32 197 2",
"  	c None",
". 	c #727561",
"+ 	c #737662",
"@ 	c #727661",
"# 	c #A9AC99",
"$ 	c #AAAC9A",
"% 	c #ABAC9B",
"& 	c #AAAB9A",
"* 	c #A8A999",
"= 	c #8D917E",
"- 	c #747763",
"; 	c #707360",
"> 	c #A1A391",
", 	c #90937C",
"' 	c #90937D",
") 	c #979A85",
"! 	c #9A9D8A",
"~ 	c #777A66",
"{ 	c #707361",
"] 	c #70735F",
"^ 	c #6F735F",
"/ 	c #6E705D",
"( 	c #A1A390",
"_ 	c #8F927B",
": 	c #8E917A",
"< 	c #8D9079",
"[ 	c #8C8F79",
"} 	c #91937E",
"| 	c #A3A695",
"1 	c #A3A794",
"2 	c #A3A693",
"3 	c #A2A693",
"4 	c #A2A593",
"5 	c #A1A492",
"6 	c #9FA28F",
"7 	c #9A9C8A",
"8 	c #6B6D5B",
"9 	c #9C9F8B",
"0 	c #8B8E77",
"a 	c #8A8D77",
"b 	c #888B74",
"c 	c #81846F",
"d 	c #7A7C68",
"e 	c #757764",
"f 	c #757864",
"g 	c #838674",
"h 	c #686A59",
"i 	c #959785",
"j 	c #848671",
"k 	c #838571",
"l 	c #80816E",
"m 	c #757765",
"n 	c #6B6E5C",
"o 	c #737562",
"p 	c #747561",
"q 	c #666856",
"r 	c #7F8071",
"s 	c #6B6D5C",
"t 	c #6A6B5A",
"u 	c #656755",
"v 	c #6A6D5B",
"w 	c #8B8D7B",
"x 	c #CECFC1",
"y 	c #D8D8CB",
"z 	c #D7D8CB",
"A 	c #D7D8CA",
"B 	c #D7D7CA",
"C 	c #D6D7C9",
"D 	c #D5D6C9",
"E 	c #D5D5C7",
"F 	c #D3D4C5",
"G 	c #D1D2C4",
"H 	c #D1D1C2",
"I 	c #CFD0C1",
"J 	c #CECFBF",
"K 	c #CDCDBD",
"L 	c #C5C7B5",
"M 	c #717460",
"N 	c #6F715D",
"O 	c #6F705E",
"P 	c #6F715E",
"Q 	c #737462",
"R 	c #A5A697",
"S 	c #CCCCBD",
"T 	c #C1C1AC",
"U 	c #BEBEA9",
"V 	c #CDCDBC",
"W 	c #6C6F5C",
"X 	c #CBCBBC",
"Y 	c #D3D4C6",
"Z 	c #D4D4C6",
"` 	c #C5C6B3",
" .	c #BDBEA9",
"..	c #BCBDA7",
"+.	c #CCCDBC",
"@.	c #6A6D5A",
"#.	c #CBCCBA",
"$.	c #BCBDA6",
"%.	c #BBBCA5",
"&.	c #686A58",
"*.	c #CDCEBE",
"=.	c #BBBCA6",
"-.	c #D0D1C1",
";.	c #BDBFA9",
">.	c #CFD1C1",
",.	c #646655",
"'.	c #D2D3C3",
").	c #C0C1AB",
"!.	c #626353",
"~.	c #D4D5C6",
"{.	c #C2C3AE",
"].	c #5F6151",
"^.	c #C4C5B1",
"/.	c #5D5F4F",
"(.	c #D8D9CB",
"_.	c #C6C8B4",
":.	c #D7D9CB",
"<.	c #5B5C4D",
"[.	c #D9DACD",
"}.	c #C8CAB7",
"|.	c #D8D9CC",
"1.	c #595A4B",
"2.	c #DBDBCF",
"3.	c #D6D7CB",
"4.	c #575849",
"5.	c #DCDDD1",
"6.	c #CDCFBD",
"7.	c #D4D6C9",
"8.	c #545547",
"9.	c #DDDFD2",
"0.	c #CFD1C0",
"a.	c #D2D3C7",
"b.	c #525345",
"c.	c #D7D7C9",
"d.	c #C9CAB7",
"e.	c #C9CAB8",
"f.	c #CACBB8",
"g.	c #CACBB9",
"h.	c #CBCBBA",
"i.	c #C9CABC",
"j.	c #505143",
"k.	c #D0D1C2",
"l.	c #C8C9B7",
"m.	c #C9CAB9",
"n.	c #CBCCBB",
"o.	c #CCCDBD",
"p.	c #CFD0C0",
"q.	c #D2D2C4",
"r.	c #D4D5C7",
"s.	c #D6D6C9",
"t.	c #D9D9CD",
"u.	c #D3D3C5",
"v.	c #D1D2C3",
"w.	c #D0D0C1",
"x.	c #CDCEBD",
"y.	c #CACBBA",
"z.	c #C8C8B6",
"A.	c #BFC0AF",
"B.	c #4F4F42",
"C.	c #B7B7A4",
"D.	c #C0C0AC",
"E.	c #C1C1AD",
"F.	c #C3C3B0",
"G.	c #C5C5B2",
"H.	c #C7C7B5",
"I.	c #C9C9B7",
"J.	c #CACAB9",
"K.	c #CCCCBC",
"L.	c #CECEBE",
"M.	c #D0D0C0",
"N.	c #D2D2C3",
"O.	c #D3D3C6",
"P.	c #D5D5C8",
"Q.	c #D1D1C3",
"R.	c #CFCFC0",
"S.	c #CCCCBB",
"T.	c #C6C6B4",
"U.	c #C4C4B1",
"V.	c #C3C3AF",
"W.	c #C0C0AB",
"X.	c #9F9F8C",
"Y.	c #4F4F41",
"Z.	c #49493D",
"`.	c #7F7F6A",
" +	c #A9A98F",
".+	c #AAAA90",
"++	c #AAAA91",
"@+	c #ABAB91",
"#+	c #ABAB92",
"$+	c #ACAC92",
"%+	c #ACAC93",
"&+	c #ADAD94",
"*+	c #696959",
"=+	c #46463C",
"-+	c #262621",
";+	c #48483D",
">+	c #4A4A3E",
"                                                                ",
"                                                                ",
"                                                                ",
"                                                                ",
"    . + + + + + + + + + + @                                     ",
"    + # $ $ % % $ $ $ & * = -                                   ",
"    ; > , , , , , , , , ' ) ! ~ { ; ; ; ; ; ; ; ; ; ; ; ] ^     ",
"    / ( _ _ _ _ _ _ _ : < [ } ! | 1 1 1 2 2 3 3 3 4 5 6 7 /     ",
"    8 9 0 0 0 0 0 a b c d e - - f f f f f f f f f f f f g 8     ",
"    h i j j j j k l m n o + + + + + + + + + + + + + + + + + p   ",
"    q r s s s s t u v w x y y z A A B C C D E F G H I J K L M   ",
"  N O P / / / / / Q R S T U U U U U U U U U U U U U U U U V P   ",
"  W X Y Y Y Z Z Z I `  ...................................+.W   ",
"  @.#.$.$.$.$.$.$.%.%.%.%.%.%.%.%.%.%.%.%.%.%.%.%.%.%.%.%.+.@.  ",
"  &.*.=.=.=.=.=.=.=.=.=.=.=.=.=.=.=.=.=.=.=.=.=.=.=.=.=.=.K &.  ",
"  q -.;.;.;.;.;.;.;.;.;.;.;.;.;.;.;.;.;.;.;.;.;.;.;.;.;.;.>.q   ",
"  ,.'.).).).).).).).).).).).).).).).).).).).).).).).).).).'.,.  ",
"  !.~.{.{.{.{.{.{.{.{.{.{.{.{.{.{.{.{.{.{.{.{.{.{.{.{.{.{.~.!.  ",
"  ].D ^.^.^.^.^.^.^.^.^.^.^.^.^.^.^.^.^.^.^.^.^.^.^.^.^.^.C ].  ",
"  /.(._._._._._._._._._._._._._._._._._._._._._._._._._._.:./.  ",
"  <.[.}.}.}.}.}.}.}.}.}.}.}.}.}.}.}.}.}.}.}.}.}.}.}.}.}.}.|.<.  ",
"  1.2.#.#.#.#.#.#.#.#.#.#.#.#.#.#.#.#.#.#.#.#.#.#.#.#.#.#.3.1.  ",
"  4.5.6.6.6.6.6.6.6.6.6.6.6.6.6.6.6.6.6.6.6.6.6.6.6.6.6.6.7.4.  ",
"  8.9.0.0.0.0.0.0.0.0.0.0.0.0.0.0.0.0.0.0.0.0.0.0.0.0.0.0.a.8.  ",
"  b.c.d.d.e.e.e.e.f.g.g.g.g.h.#.#.h.g.g.g.f.e.e.e.e.e.d.d.i.b.  ",
"  j.k.l.m.n.o.*.p.k.q.F r.s.z t.|.B D r.u.v.w.J x.+.y.e.z.A.j.  ",
"  B.C.D.E.F.G.H.I.J.K.L.M.N.O.P.E u.Q.R.L.S.J.z.T.U.V.E.W.X.Y.  ",
"  Z.`. + +.+.+++@+#+$+%+%+&+&+&+&+&+%+%+%+$+#+@+++.+.+ + +*+=+  ",
"  -+;+>+>+>+>+>+>+>+>+>+>+>+>+>+>+>+>+>+>+>+>+>+>+>+>+>+>+Z.    ",
"                                                                ",
"                                                                ",
"                                                                "};
